<?xml version="1.0" encoding="UTF-8"?>
<svg width="240px" height="213px" viewBox="0 0 240 213" version="1.1" xmlns="http://www.w3.org/2000/svg" xmlns:xlink="http://www.w3.org/1999/xlink">
    <!-- Generator: Sketch 53.2 (72643) - https://sketchapp.com -->
    <title>分组 6</title>
    <desc>Created with Sketch.</desc>
    <defs>
        <linearGradient x1="70.4057443%" y1="11.1340753%" x2="21.5188281%" y2="78.511924%" id="linearGradient-1">
            <stop stop-color="#39ABC5" offset="0%"></stop>
            <stop stop-color="#A8EB9D" offset="100%"></stop>
        </linearGradient>
        <filter x="-36.5%" y="-181.8%" width="173.0%" height="463.6%" filterUnits="objectBoundingBox" id="filter-2">
            <feGaussianBlur stdDeviation="1" in="SourceGraphic"></feGaussianBlur>
        </filter>
        <linearGradient x1="42.8958116%" y1="31.7583774%" x2="71.4232559%" y2="61.1533271%" id="linearGradient-3">
            <stop stop-color="#D0F4D2" offset="0%"></stop>
            <stop stop-color="#93E598" offset="100%"></stop>
        </linearGradient>
        <linearGradient x1="44.6294382%" y1="53.7637236%" x2="55.0468382%" y2="72.1345706%" id="linearGradient-4">
            <stop stop-color="#DAF7DB" offset="0%"></stop>
            <stop stop-color="#8CDF90" offset="100%"></stop>
        </linearGradient>
        <linearGradient x1="140.139511%" y1="70.1779831%" x2="11.869433%" y2="70.1779831%" id="linearGradient-5">
            <stop stop-color="#DAF7DB" offset="0%"></stop>
            <stop stop-color="#8CDF90" offset="100%"></stop>
        </linearGradient>
        <filter x="-4.7%" y="-5.9%" width="108.5%" height="111.8%" filterUnits="objectBoundingBox" id="filter-6">
            <feGaussianBlur stdDeviation="1" in="SourceGraphic"></feGaussianBlur>
        </filter>
        <linearGradient x1="40.1900797%" y1="98.7555528%" x2="60.0590759%" y2="-0.888676903%" id="linearGradient-7">
            <stop stop-color="#1BC37D" offset="0%"></stop>
            <stop stop-color="#56D09D" offset="100%"></stop>
        </linearGradient>
        <linearGradient x1="63.2495542%" y1="69.0456135%" x2="39.7734414%" y2="24.9655342%" id="linearGradient-8">
            <stop stop-color="#AFE9D2" offset="0%"></stop>
            <stop stop-color="#5AD5A2" offset="100%"></stop>
        </linearGradient>
        <linearGradient x1="50%" y1="0%" x2="50%" y2="100%" id="linearGradient-9">
            <stop stop-color="#FFFFFF" offset="0%"></stop>
            <stop stop-color="#DEF6EC" offset="100%"></stop>
        </linearGradient>
        <linearGradient x1="100%" y1="50%" x2="0%" y2="50%" id="linearGradient-10">
            <stop stop-color="#E8FAF2" offset="0%"></stop>
            <stop stop-color="#DFF9EC" offset="100%"></stop>
        </linearGradient>
        <linearGradient x1="100%" y1="50%" x2="0%" y2="50%" id="linearGradient-11">
            <stop stop-color="#E8FAF2" offset="0%"></stop>
            <stop stop-color="#DFF9EC" offset="100%"></stop>
        </linearGradient>
        <linearGradient x1="100%" y1="50%" x2="0%" y2="50%" id="linearGradient-12">
            <stop stop-color="#E8FAF2" offset="0%"></stop>
            <stop stop-color="#DFF9EC" offset="100%"></stop>
        </linearGradient>
        <linearGradient x1="-1.11022302e-14%" y1="50%" x2="100%" y2="50%" id="linearGradient-13">
            <stop stop-color="#C5ECDB" offset="0%"></stop>
            <stop stop-color="#DFF7ED" offset="100%"></stop>
        </linearGradient>
        <linearGradient x1="0%" y1="70.2256889%" x2="88.6252583%" y2="20.9486862%" id="linearGradient-14">
            <stop stop-color="#1BC37D" offset="0%"></stop>
            <stop stop-color="#72D8AD" offset="30.5952495%"></stop>
            <stop stop-color="#52BC90" offset="46.7989898%"></stop>
            <stop stop-color="#61D8A6" offset="69.8280939%"></stop>
            <stop stop-color="#4CC995" offset="82.5403645%"></stop>
            <stop stop-color="#7FE3B9" offset="100%"></stop>
        </linearGradient>
        <path d="M25.5669432,48.2393945 L25.5806043,48.2445616 C25.5813538,48.2479279 25.5821041,48.2512945 25.5828554,48.2546614 C25.5775748,48.2495898 25.5722705,48.2445008 25.5669426,48.2393943 Z M17.2886065,36.431785 C17.1708743,28.7907244 22.2853943,23.2970473 32.6321663,19.9507538 C32.6321663,19.9507538 32.8833445,7.58334104 42.2277165,4.99451283 C45.4226062,3.89817633 48.7662078,5.01631672 52.2585214,8.34893401 C56.2441022,5.82705296 59.718874,4.00688869 62.6828369,2.8884412 C65.951478,2.8884412 68.8186944,5.36210801 71.284486,10.3094416 L56.9474508,16.7059663 C52.8294587,12.8862931 49.6717471,11.5866583 47.4743159,12.807062 C45.2768847,14.0274657 43.0930659,18.3415652 40.9228595,25.7493605 C31.4385422,29.9306243 26.2212549,35.3210952 25.2709976,41.9207733 C24.6540291,39.6168138 23.2150932,37.5818997 21.1781376,36.2329421 C20.7525764,35.9511176 20.267088,35.7725546 19.760337,35.711474 C18.8362139,35.6000861 17.9556223,35.884677 17.2886065,36.431785 Z" id="path-15"></path>
        <filter x="-3.7%" y="-2.2%" width="107.4%" height="104.4%" filterUnits="objectBoundingBox" id="filter-16">
            <feOffset dx="0" dy="1" in="SourceAlpha" result="shadowOffsetOuter1"></feOffset>
            <feGaussianBlur stdDeviation="0.5" in="shadowOffsetOuter1" result="shadowBlurOuter1"></feGaussianBlur>
            <feColorMatrix values="0 0 0 0 0.146364154   0 0 0 0 0.636160714   0 0 0 0 0.413841708  0 0 0 1 0" type="matrix" in="shadowBlurOuter1"></feColorMatrix>
        </filter>
        <linearGradient x1="106.572386%" y1="65.1388507%" x2="6.33507328%" y2="30.1007702%" id="linearGradient-17">
            <stop stop-color="#BBF5DE" offset="0%"></stop>
            <stop stop-color="#5AD5A2" offset="100%"></stop>
        </linearGradient>
        <linearGradient x1="50%" y1="37.6587507%" x2="50%" y2="160.350478%" id="linearGradient-18">
            <stop stop-color="#FFD7C2" offset="0%"></stop>
            <stop stop-color="#FFA5A5" offset="100%"></stop>
        </linearGradient>
        <linearGradient x1="4.56193816%" y1="46.2508383%" x2="91.9301023%" y2="50.8397787%" id="linearGradient-19">
            <stop stop-color="#9A6200" offset="0%"></stop>
            <stop stop-color="#624102" offset="100%"></stop>
        </linearGradient>
        <filter x="-5.2%" y="-19.8%" width="110.3%" height="139.5%" filterUnits="objectBoundingBox" id="filter-20">
            <feGaussianBlur stdDeviation="1" in="SourceGraphic"></feGaussianBlur>
        </filter>
        <linearGradient x1="-18.3203636%" y1="53.4704446%" x2="91.9301023%" y2="51.2643815%" id="linearGradient-21">
            <stop stop-color="#FFB93F" offset="0%"></stop>
            <stop stop-color="#FFC45F" offset="100%"></stop>
        </linearGradient>
        <linearGradient x1="-18.3203636%" y1="56.2150712%" x2="91.9301023%" y2="52.264327%" id="linearGradient-22">
            <stop stop-color="#FFB93F" offset="0%"></stop>
            <stop stop-color="#FFFFFF" offset="100%"></stop>
        </linearGradient>
        <linearGradient x1="-18.3203636%" y1="52.5650639%" x2="91.9301023%" y2="50.9345256%" id="linearGradient-23">
            <stop stop-color="#FFB93F" offset="0%"></stop>
            <stop stop-color="#FFC45F" offset="100%"></stop>
        </linearGradient>
        <linearGradient x1="50%" y1="37.6587507%" x2="50%" y2="160.350478%" id="linearGradient-24">
            <stop stop-color="#FFD7C2" offset="0%"></stop>
            <stop stop-color="#FFA5A5" offset="100%"></stop>
        </linearGradient>
        <linearGradient x1="41.8707276%" y1="87.1586822%" x2="41.8707276%" y2="21.4911258%" id="linearGradient-25">
            <stop stop-color="#D5D5E1" offset="0%"></stop>
            <stop stop-color="#E8E8F1" offset="100%"></stop>
        </linearGradient>
        <linearGradient x1="51.5560545%" y1="28.38456%" x2="41.0962918%" y2="76.8207751%" id="linearGradient-26">
            <stop stop-color="#F3F3F3" offset="0%"></stop>
            <stop stop-color="#F6F6FF" offset="100%"></stop>
        </linearGradient>
        <linearGradient x1="50%" y1="37.6587507%" x2="50%" y2="160.350478%" id="linearGradient-27">
            <stop stop-color="#FFD7C2" offset="0%"></stop>
            <stop stop-color="#FFA5A5" offset="100%"></stop>
        </linearGradient>
        <linearGradient x1="-18.3203636%" y1="51.9891828%" x2="91.9301023%" y2="50.7247158%" id="linearGradient-28">
            <stop stop-color="#FFB93F" offset="0%"></stop>
            <stop stop-color="#FFFFFF" offset="100%"></stop>
        </linearGradient>
        <linearGradient x1="50%" y1="37.6587507%" x2="50%" y2="160.350478%" id="linearGradient-29">
            <stop stop-color="#FFD7C2" offset="0%"></stop>
            <stop stop-color="#FFA5A5" offset="100%"></stop>
        </linearGradient>
        <linearGradient x1="50%" y1="0%" x2="44.8601286%" y2="90.4353487%" id="linearGradient-30">
            <stop stop-color="#FFFFFF" offset="0%"></stop>
            <stop stop-color="#E1E2E7" offset="100%"></stop>
        </linearGradient>
        <linearGradient x1="67.8131873%" y1="0%" x2="6.66193047%" y2="100%" id="linearGradient-31">
            <stop stop-color="#FFB782" offset="0%"></stop>
            <stop stop-color="#EB4878" offset="100%"></stop>
        </linearGradient>
    </defs>
    <g id="Page-1" stroke="none" stroke-width="1" fill="none" fill-rule="evenodd">
        <g id="0702无任务" transform="translate(-257.000000, -531.000000)">
            <g id="分组-3" transform="translate(240.000000, 532.000000)">
                <g id="分组-6" transform="translate(17.000000, 0.000000)">
                    <ellipse id="椭圆形" fill="#42CE92" opacity="0.0938895089" cx="120" cy="138" rx="120" ry="74"></ellipse>
                    <path d="M40.6791925,92.6777822 C38.8272326,93.4726444 36.6201572,92.7463124 35.7495517,91.0554744 C35.5623717,90.6919446 35.4476022,90.3008836 35.4106194,89.9006099 C35.1269972,86.830904 33.35977,84.0362798 30.5898118,82.2771722 C28.9098654,81.2102946 28.4952898,79.1020371 29.6638314,77.5682472 C29.9150676,77.2384827 30.2286237,76.9522062 30.5898118,76.7228278 C33.35977,74.9637202 35.1269972,72.169096 35.4106194,69.0993901 C35.5826328,67.2376503 37.3751326,65.8557246 39.4142797,66.0127728 C39.8526959,66.0465381 40.2810214,66.1513226 40.6791925,66.3222178 C43.7327729,67.6328162 47.2672271,67.6328162 50.3208075,66.3222178 C52.1727674,65.5273556 54.3798428,66.2536876 55.2504483,67.9445256 C55.4376283,68.3080554 55.5523978,68.6991164 55.5893806,69.0993901 C55.8730028,72.169096 57.64023,74.9637202 60.4101882,76.7228278 C62.0901346,77.7897054 62.5047102,79.8979629 61.3361686,81.4317528 C61.0849324,81.7615173 60.7713763,82.0477938 60.4101882,82.2771722 C57.64023,84.0362798 55.8730028,86.830904 55.5893806,89.9006099 C55.4173672,91.7623497 53.6248674,93.1442754 51.5857203,92.9872272 C51.1473041,92.9534619 50.7189786,92.8486774 50.3208075,92.6777822 C47.2672271,91.3671838 43.7327729,91.3671838 40.6791925,92.6777822 Z M45.5,85.0588235 C48.2338095,85.0588235 50.45,82.925592 50.45,80.2941176 C50.45,77.6626433 48.2338095,75.5294118 45.5,75.5294118 C42.7661905,75.5294118 40.55,77.6626433 40.55,80.2941176 C40.55,82.925592 42.7661905,85.0588235 45.5,85.0588235 Z" id="Shape" fill="url(#linearGradient-1)" fill-rule="nonzero"></path>
                    <g id="分组-8" transform="translate(58.651321, 160.969021) rotate(-15.000000) translate(-58.651321, -160.969021) translate(42.651321, 139.969021)">
                        <ellipse id="椭圆形" fill="#0C470F" opacity="0.393415179" filter="url(#filter-2)" cx="20.7349494" cy="40.6554624" rx="4.10958904" ry="1"></ellipse>
                        <path d="M20.9658678,39.286864 C20.2405537,40.9234365 19.8989094,37.7105298 15.6047099,37.7105298 C11.3105104,37.7105298 12.0377151,35.170679 10.2076637,30.2199038 C8.37761232,25.2691286 0.469864033,23.6188702 0.469864033,20.3183534 C0.469864033,17.0178367 0.477890574,10.6972181 3.71579725,13.8575274 C6.95370393,17.0178367 6.9665464,15.3675783 10.2076637,20.3183534 C13.448781,25.2691286 16.131251,27.4157538 18.9244873,30.2199038 C21.7177236,33.0240538 21.6911819,37.6502914 20.9658678,39.286864 Z" id="路径-6" fill="url(#linearGradient-3)"></path>
                        <path d="M24.4532891,33.0257527 C27.9378782,28.6250636 28.8090254,25.3245468 27.0667309,23.1242023 C24.4532891,19.8236855 24.4532891,19.848665 24.4532891,18.1754416 C24.4532891,16.5022182 22.3607699,11.6138917 20.2265126,10.533327 C18.0922553,9.4527623 17.7033694,5.88351446 18.2431543,3.3150581 C18.7829392,0.746601726 15.3953375,-1.60429128 14.513622,3.83922464 C13.6319064,9.28274056 15.5667042,13.6318797 16.0976599,15.2061046 C16.6286155,16.7803294 15.643759,19.3490751 13.4633491,21.2366387 C11.2829392,23.1242023 10.8920466,35.8716281 18.2431543,40.3046831 C21.1270905,41.7228739 23.1971355,39.2965638 24.4532891,33.0257527 Z" id="路径-7" fill="url(#linearGradient-4)"></path>
                        <path d="M23.5781103,40.0656123 C25.8493406,41.0939309 26.5265762,37.404721 27.4203814,36.7863589 C28.3141866,36.1679968 29.2607096,32.8834443 26.4143727,30.5708604 C25.8137095,29.4428656 26.9799077,26.7530567 27.9292688,25.3834914 C28.8786299,24.013926 28.5676247,16.5857424 26.4024385,16.5838885 C24.2372524,16.5820346 24.1973347,20.6069326 24.2200166,21.7859929 C24.2426986,22.9650532 23.6018405,26.9483496 22.4449564,28.322571 C21.2880723,29.6967925 21.3068799,39.0372938 23.5781103,40.0656123 Z" id="路径-8" fill="url(#linearGradient-5)" transform="translate(25.063252, 28.414685) rotate(13.000000) translate(-25.063252, -28.414685) "></path>
                    </g>
                    <g id="分组-5" transform="translate(72.000000, 0.000000)">
                        <path d="M4.85461807,181.904796 L89.4800481,133.637989 C89.7079421,133.508008 89.9777893,133.472793 90.2314084,133.539935 L93.1835311,134.321477 C93.7174233,134.462819 94.0356481,135.010205 93.8943061,135.544097 C93.8271203,135.797878 93.6628327,136.015061 93.4369072,136.148764 L11.1278997,184.859363 C10.9063642,184.990469 10.6428029,185.031092 10.3920718,184.972778 L5.1235265,183.747444 C4.58559877,183.622335 4.25094286,183.084838 4.37605161,182.54691 C4.43916265,182.275553 4.61261428,182.042825 4.85461807,181.904796 Z" id="矩形" fill="#16734C" opacity="0.135904948" filter="url(#filter-6)"></path>
                        <path d="M2.04851415,45.4157552 L80.0328027,0.172422444 C81.1266246,-0.462168845 82.5009254,-0.342718561 83.4688579,0.471074519 L89.825425,5.81538327 L84.5774827,136.550236 C84.5350135,137.608213 83.9379823,138.565452 83.0065408,139.068976 L10.3354479,178.35395 L3.07964825,177.95644 C2.55413378,177.92765 2.14087694,177.496457 2.13442647,176.970194 L0.554203614,48.0474376 C0.540933999,46.9648338 1.11202257,45.9590697 2.04851415,45.4157552 Z" id="矩形" fill="url(#linearGradient-7)"></path>
                        <path d="M9.46643225,49.1929847 L87.4312432,3.27745002 C88.8589112,2.43665866 90.6978608,2.91241617 91.5386522,4.34008417 C91.8101245,4.80104556 91.9533989,5.32621328 91.9536303,5.86117363 L92.0084087,132.471621 C92.0088777,133.555678 91.4244715,134.555663 90.4797466,135.087334 L14.0432471,178.104187 C13.7437944,178.272713 13.4059726,178.361244 13.0623553,178.361244 L9.99068211,178.361244 C9.4415104,178.361244 8.99509519,177.918376 8.99071394,177.369222 L7.98891515,51.8019401 C7.98037008,50.7308853 8.54350302,49.7365221 9.46643225,49.1929847 Z" id="矩形-copy" fill="url(#linearGradient-8)"></path>
                        <path d="M15.4295334,58.3621469 L84.2469119,17.9828758 L84.2469119,132.590009 C84.2469119,134.027412 83.4756668,135.354294 82.2266669,136.06572 L21.4092884,170.70712 C19.489706,171.800508 17.0472105,171.130746 15.953822,169.211163 C15.6102186,168.607924 15.4295334,167.925642 15.4295334,167.231408 L15.4295334,58.3621469 Z" id="矩形" fill="url(#linearGradient-9)"></path>
                        <g id="分组-4" transform="translate(26.572051, 39.622891)">
                            <path d="M13.4991515,21.4677225 L49.0171907,0.936622381 C49.495339,0.660230147 50.107015,0.823785739 50.3834072,1.30193402 C50.4713436,1.45406075 50.5176431,1.62667258 50.5176431,1.80238643 L50.5176431,7.03950552 C50.5176431,7.39658445 50.3272417,7.72656855 50.0180955,7.90526956 L14.5000563,28.4363697 C14.021908,28.7127619 13.4102321,28.5492063 13.1338398,28.071058 C13.0459034,27.9189313 12.9996039,27.7463194 12.9996039,27.5706056 L12.9996039,22.3334865 C12.9996039,21.9764076 13.1900054,21.6464235 13.4991515,21.4677225 Z" id="矩形" fill="url(#linearGradient-10)"></path>
                            <path d="M13.8042323,49.7491598 L50.5264759,30.0916354 C51.0133872,29.8309904 51.6194014,30.0144154 51.8800464,30.5013267 C51.9577557,30.6464954 51.9984155,30.808607 51.9984155,30.9732663 L51.9984155,36.2519606 C51.9984155,36.6207227 51.7954672,36.959558 51.4703551,37.1335914 L14.7481115,56.7911158 C14.2612002,57.0517608 13.6551861,56.8683358 13.394541,56.3814245 C13.3168318,56.2362558 13.2761719,56.0741442 13.2761719,55.9094849 L13.2761719,50.6307906 C13.2761719,50.2620285 13.4791203,49.9231932 13.8042323,49.7491598 Z" id="矩形-copy-5" fill="url(#linearGradient-11)"></path>
                            <path d="M14.8642119,84.314813 L50.4729292,62.3215714 C50.9428142,62.0313533 51.5589995,62.1770021 51.8492176,62.6468871 C51.9467553,62.804808 51.9984155,62.9867593 51.9984155,63.1723735 L51.9984155,68.3688677 C51.9984155,68.7155477 51.8188579,69.0374941 51.5239019,69.2196697 L15.9151846,91.2129113 C15.4452996,91.5031294 14.8291143,91.3574806 14.5388962,90.8875956 C14.4413585,90.7296747 14.3896982,90.5477234 14.3896982,90.3621093 L14.3896982,85.165615 C14.3896982,84.818935 14.5692559,84.4969886 14.8642119,84.314813 Z" id="矩形-copy-6" fill="url(#linearGradient-12)"></path>
                            <path d="M0.409596575,29.7588284 L7.69502792,24.4295019 C8.14078152,24.1034311 8.76646883,24.2004532 9.09253964,24.6462068 C9.21787432,24.817545 9.28543135,25.0243237 9.28543135,25.2366102 L9.28543135,31.8150756 C9.28543135,32.1340386 9.13327242,32.4338671 8.87583477,32.6221839 L1.59040342,37.9515104 C1.14464982,38.2775812 0.518962515,38.1805591 0.192891707,37.7348055 C0.0675570257,37.5634673 -9.73203123e-16,37.3566886 -9.99200722e-16,37.1444021 L2.22044605e-16,30.5659367 C4.66278929e-16,30.2469738 0.152158922,29.9471453 0.409596575,29.7588284 Z" id="矩形" fill="url(#linearGradient-13)"></path>
                            <path d="M0.409596575,56.1740891 L7.69502792,50.8447626 C8.14078152,50.5186918 8.76646883,50.6157138 9.09253964,51.0614674 C9.21787432,51.2328056 9.28543135,51.4395844 9.28543135,51.6518709 L9.28543135,58.2303362 C9.28543135,58.5492992 9.13327242,58.8491277 8.87583477,59.0374445 L1.59040342,64.366771 C1.14464982,64.6928419 0.518962515,64.5958198 0.192891707,64.1500662 C0.0675570257,63.978728 -1.26224035e-15,63.7719493 -1.66533454e-15,63.5596627 L8.8817842e-16,56.9811974 C1.13241274e-15,56.6622344 0.152158922,56.3624059 0.409596575,56.1740891 Z" id="矩形-copy-7" fill="url(#linearGradient-13)"></path>
                            <path d="M0.409596575,92.0233714 L7.69502792,86.6940449 C8.14078152,86.3679741 8.76646883,86.4649961 9.09253964,86.9107497 C9.21787432,87.0820879 9.28543135,87.2888667 9.28543135,87.5011532 L9.28543135,94.0796185 C9.28543135,94.3985815 9.13327242,94.69841 8.87583477,94.8867268 L1.59040342,100.216053 C1.14464982,100.542124 0.518962515,100.445102 0.192891707,99.9993485 C0.0675570257,99.8280103 -1.30627003e-15,99.6212316 -1.33226763e-15,99.408945 L-3.33066907e-16,92.8304797 C-3.72128605e-16,92.5115167 0.152158922,92.2116882 0.409596575,92.0233714 Z" id="矩形-copy-8" fill="url(#linearGradient-13)"></path>
                        </g>
                        <g id="合并形状">
                            <use fill="black" fill-opacity="1" filter="url(#filter-16)" xlink:href="#path-15"></use>
                            <use fill="url(#linearGradient-14)" fill-rule="evenodd" xlink:href="#path-15"></use>
                        </g>
                        <path d="M24.7149648,50.068223 L24.7149648,41.107745 C27.6396338,32.7817296 32.6586634,27.9117844 39.7720534,26.4979096 C39.9071637,26.0298936 40.3941048,13.2829089 47.2003985,10.4563876 C51.7379276,8.57204002 54.8330714,10.3522817 56.4858298,15.7971125 L63.2631066,10.4563876 C67.4935394,7.91300973 70.16431,7.91300973 71.2754182,10.4563876 C71.2875086,10.6996084 71.2875086,14.4219319 71.2754182,21.6233579 L24.7149648,50.068223 Z" id="路径-4" fill="url(#linearGradient-17)"></path>
                    </g>
                    <g id="Girl" transform="translate(139.000000, 119.500000) scale(-1, 1) translate(-139.000000, -119.500000) translate(38.000000, 65.000000)">
                        <path d="M103.463415,36.3333333 L118.243902,36.3333333" id="Shape" fill-rule="nonzero"></path>
                        <path d="M101.821138,28.0757576 L116.601626,28.0757576" id="Shape" fill-rule="nonzero"></path>
                        <path d="M124.813008,36.3333333 L133.02439,36.3333333" id="Shape" fill-rule="nonzero"></path>
                        <path d="M128.097561,51.1969697 L142.878049,51.1969697" id="Shape" fill-rule="nonzero"></path>
                        <path d="M147.804878,51.1969697 L162.585366,51.1969697" id="Shape" fill-rule="nonzero"></path>
                        <path d="M144.520325,62.7575758 L162.585366,62.7575758" id="Shape" fill-rule="nonzero"></path>
                        <path d="M165.869919,62.7575758 L169.154472,62.7575758" id="Shape" fill-rule="nonzero"></path>
                        <path d="M169.154472,77.6212121 L202,77.6212121" id="Shape" fill-rule="nonzero"></path>
                        <path d="M156.01626,77.6212121 L164.227642,77.6212121" id="Shape" fill-rule="nonzero"></path>
                        <path d="M81.1617841,10.2054742 C80.0475974,10.5398354 80.0599619,4.93492163 82.8758388,3.02510926 C84.7530901,1.751901 88.6309258,-0.824854564 94.5093459,2.14792998 C94.5093459,0.534565838 96.3292402,0 96.9840382,0 C102.019044,0 102.607817,9.13272027 101.079592,6.65073963 C99.788605,4.5540541 98.9285569,3.02510926 96.6959997,3.82210996 C100.362388,7.56512104 99.3952952,12.8755222 98.7136553,14.5968929 C97.7375916,17.0617826 96.3361552,18.8022122 94.5093459,19.8181818 C93.5377097,19.816916 93.0599809,19.3570855 93.0761596,18.4386904 C93.1004277,17.0610977 85.7427315,19.0547473 86.7534303,17.7979008 C83.7684573,12.5133756 81.9045752,9.98256667 81.1617841,10.2054742 Z" id="Shape" fill="#423565" fill-rule="nonzero"></path>
                        <path d="M87.0947667,19.3924006 C90.1150678,15.1888547 92.6759552,14.6285179 93.3414056,16.3224402 C94.006856,18.0163624 95.9061471,20.1245847 99.0392789,22.6471069 C102.649326,21.6318641 105.065219,21.3299522 106.286957,21.7413713 C108.119564,22.3585 95.964164,51.4832649 88.689136,46.3692787 C81.4141079,41.2552924 83.2952895,38.2429325 85.2364544,35.1345205 C87.1776194,32.0261085 85.9694276,29.2281875 87.0622822,27.4781857 C88.1551367,25.7281838 92.7072605,26.66317 91.308201,23.3413802 C90.3754948,21.1268536 88.4923423,19.3475437 87.0947667,19.3924006 Z" id="Shape" fill="url(#linearGradient-18)" fill-rule="nonzero"></path>
                        <polygon id="Shape-Copy-2" fill="url(#linearGradient-19)" opacity="0.162495353" filter="url(#filter-20)" transform="translate(88.695122, 98.780911) rotate(4.000000) translate(-88.695122, -98.780911) " points="59.6446646 91.1897841 117.74558 106.372037 117.216784 102.589071"></polygon>
                        <polygon id="Shape" fill="url(#linearGradient-21)" points="4.92682927 70.7188638 113.930822 99.0909091 118.243902 62.7575758"></polygon>
                        <polygon id="Shape" fill="url(#linearGradient-22)" points="0 72.7122285 100.178862 43.6496375 73.0461307 29.7272727"></polygon>
                        <polygon id="Shape" fill="url(#linearGradient-23)" points="4.12114787e-13 72.5243364 104.917175 41.2878788 113.317073 62.7212868"></polygon>
                        <path d="M70.6826044,48.4273381 C73.4904674,46.2818448 75.4607081,44.3400071 76.5933264,42.6018251 C77.1513816,41.745401 78.0495277,40.7881943 79.2877648,39.7302047 C84.6920239,39.3520418 86.5116139,40.1168259 84.7465346,42.0245568 C82.9814553,43.9322877 78.6746839,47.1336458 71.8262205,51.6286311 C71.1244703,52.8041323 70.5666135,53.5110832 70.1526502,53.7494838 C69.7386869,53.9878844 68.9314983,54.0915484 67.7310844,54.0604759 C66.9540899,54.4515345 66.230347,54.5816401 65.5598556,54.4507928 C65.3107045,54.4021706 59.3424864,54.2807438 59.2213629,53.7494838 C59.0186501,52.860365 58.9714279,51.582795 60.6448929,50.3383547 C62.0078315,49.3248314 65.1081704,48.2788688 65.3380527,47.926078 C65.7919145,47.2295553 67.5734317,47.396642 70.6826044,48.4273381 Z" id="Shape" fill="url(#linearGradient-24)" fill-rule="nonzero"></path>
                        <path d="M84.9293061,54.2427455 L106.747967,68.9383696 L80.9075274,68.4788369 C73.6844398,64.3040708 69.055301,61.3548046 67.0201112,59.6310381 C65.0656417,64.81807 63.4447506,64.9886602 58.1950448,74.0307338 C57.6770572,74.9229138 57.8350729,76.2017512 57.2765607,77.2246123 C56.7315486,78.2227492 51.7821886,77.2281978 49.9163537,75.4532012 C48.0505188,73.6782045 50.7663196,72.7154393 51.1688932,71.7518325 C56.9223189,57.9803358 59.9773321,49.374638 62.1077367,47.1422462 C64.3872081,44.7536515 71.9943978,47.1204846 84.9293061,54.2427455 Z" id="Shape" fill="#33355B"></path>
                        <path d="M80.3141032,36.1552006 C82.2220367,31.8608719 85.4445091,27.8922858 86.0713035,27.0759839 C89.3488988,25.251894 92.6327138,25.1079668 88.7413041,36.0031378 C88.0896273,37.8277029 87.5594179,42.3213526 86.5928516,44.4031714 C86.0824574,45.5024734 79.1474966,41.5704675 78.8305624,37.913356 C78.7829384,37.3638213 80.0640212,36.7180788 80.3141032,36.1552006 Z" id="Shape" fill="url(#linearGradient-25)"></path>
                        <path d="M90.8488392,25.6259026 C91.423955,25.8159708 88.8250112,31.4800736 92.8102537,30.9774804 C96.7954962,30.4748871 99.7292163,22.1113494 100.494764,21.9461594 C102.873598,21.4328541 104.542831,21.3342966 105.50246,21.6504869 C107.405142,22.2774052 108.208156,37.4839172 106.243415,47.5142313 C104.278674,57.5445455 110.533321,63.5436703 107.587045,66.8666404 C101.998899,73.1692535 97.7284751,71.3902183 91.6778731,67.476966 C87.6441384,64.8681311 84.4561211,61.319158 82.1138211,56.8300466 C87.2111734,53.6896904 88.8059438,49.7112566 86.8981322,44.8947451 C86.2106379,43.1590789 82.587864,41.33607 82.5967296,39.4077964 C82.6154623,35.3333878 86.4271587,26.9758106 86.8981322,26.6185858 C87.3691057,26.261361 89.686572,25.2417885 90.8488392,25.6259026 Z" id="Shape" fill="url(#linearGradient-26)"></path>
                        <path d="M85.398374,17.7028653 L90.3252033,14.8636364 C88.4949719,17.5482895 87.4187626,18.5964085 87.0965752,18.0079933 C86.7743878,17.4195782 86.2083208,17.3178688 85.398374,17.7028653 Z" id="Shape" fill="#EF6949" fill-rule="nonzero"></path>
                        <path d="M93.5747816,10.6044874 C95.1208799,10.4581347 95.7160211,12.9545276 94.858129,14.3138705 C94.1938065,15.3664996 93.6871059,15.6274257 92.5264223,15.3984578 C90.5719767,18.4323919 86.8452754,19.8355983 84.9464904,19.8180187 C83.3283345,19.8030373 80.3408839,14.0624429 80.5255763,10.0906912 C80.1279151,7.74436847 82.0509829,6.49828316 82.1931237,4.95454545 C83.4257021,7.74436847 87.5376511,9.1303021 88.9486026,9.83598743 C89.0699566,9.89668248 90.2937787,13.2592218 90.5997216,13.3555219 C91.0445332,13.4955332 91.0445332,12.8369418 91.2075421,12.5518665 C92.0228448,11.246915 92.5440494,10.7020559 93.5747816,10.6044874 Z" id="Shape" fill="url(#linearGradient-27)" fill-rule="nonzero"></path>
                        <path d="M93.5747816,10.6044874 C95.1208799,10.4581347 95.7160211,12.9545276 94.858129,14.3138705 C94.1938065,15.3664996 93.6871059,15.6274257 92.5264223,15.3984578 C90.5719767,18.4323919 86.8452754,19.8355983 84.9464904,19.8180187 C83.3283345,19.8030373 80.3408839,14.0624429 80.5255763,10.0906912 C80.1279151,7.74436847 82.0509829,6.49828316 82.1931237,4.95454545 C83.4257021,7.74436847 87.5376511,9.1303021 88.9486026,9.83598743 C89.0699566,9.89668248 90.2937787,13.2592218 90.5997216,13.3555219 C91.0445332,13.4955332 91.0445332,12.8369418 91.2075421,12.5518665 C92.0228448,11.246915 92.5440494,10.7020559 93.5747816,10.6044874 Z" id="Shape-Copy" fill="url(#linearGradient-27)" fill-rule="nonzero"></path>
                        <path d="M86.3264623,13.2091711 C85.876875,13.2473806 85.4645293,12.9099721 85.4054624,12.4555481 C85.3463955,12.001124 85.6629748,11.6017657 86.1125621,11.5635561 C86.5621494,11.5253466 86.9744951,11.8627552 87.033562,12.3171792 C87.0926289,12.7716032 86.7760496,13.1709616 86.3264623,13.2091711 Z" id="Shape" fill="#423565" fill-rule="nonzero"></path>
                        <path d="M81.399633,13.2091711 C80.9500458,13.2473806 80.5377001,12.9099721 80.4786332,12.4555481 C80.4195663,12.001124 80.7361456,11.6017657 81.1857328,11.5635561 C81.6353201,11.5253466 82.0476658,11.8627552 82.1067327,12.3171792 C82.1657996,12.7716032 81.8492203,13.1709616 81.399633,13.2091711 Z" id="Shape" fill="#423565" fill-rule="nonzero"></path>
                        <path d="M86.0505195,10.2909302 C85.1436833,10.3458584 84.4258292,10.6720544 84.4085473,10.2909302 C84.3912654,9.90980598 85.1123916,9.55631568 86.0192278,9.50138753 C86.926064,9.44645937 87.6752097,9.71089354 87.6924916,10.0920178 C87.7097736,10.473142 86.9573557,10.2360021 86.0505195,10.2909302 Z" id="Shape" fill="#423565" fill-rule="nonzero"></path>
                        <path d="M81.4640064,10.4512802 C80.7570106,10.6705968 80.2158182,10.8502754 80.1169287,10.6418627 C80.0180393,10.43345 80.5110068,10.0867069 81.2180026,9.86739026 C81.9249983,9.64807364 82.5782974,9.63923424 82.6771868,9.84764693 C82.7760763,10.0560596 82.1710022,10.2319636 81.4640064,10.4512802 Z" id="Shape" fill="#423565" fill-rule="nonzero" transform="translate(81.396066, 10.215563) rotate(10.000000) translate(-81.396066, -10.215563) "></path>
                        <path d="M83.7509654,13.3283417 C83.2334597,14.6577792 82.7963113,15.4734555 82.4263747,15.7873013 C82.2957939,15.8980831 82.3035576,15.9674139 82.45445,16.052549 C82.6444574,16.1597532 83.0306477,16.2565937 83.606432,16.3377728 C83.6664832,16.3462393 83.7066857,16.3925105 83.6962268,16.4411223 C83.6857679,16.4897341 83.6286082,16.5222783 83.568557,16.5138118 C82.9631267,16.428453 82.5518814,16.3253298 82.328232,16.1991444 C82.0654676,16.0508899 82.0433533,15.8534051 82.2666735,15.6639455 C82.6045386,15.3773084 83.0335068,14.5768955 83.5404323,13.2746376 C83.5587521,13.2275752 83.6207327,13.2014458 83.6788698,13.2162758 C83.7370069,13.2311058 83.7692852,13.2812794 83.7509654,13.3283417 Z" id="Shape" fill="#EF6949" fill-rule="nonzero"></path>
                        <path d="M94.413704,13.3452402 C94.1362813,11.9404729 93.779618,11.4099821 93.36103,11.6283163 C92.8754826,11.8815763 92.2815974,12.8437523 91.6016872,14.5076712 C91.5724693,14.5791751 91.4995986,14.6092263 91.4389259,14.5747925 C91.3782531,14.5403587 91.352754,14.4544793 91.3819718,14.3829755 C92.086298,12.6593043 92.7056475,11.6558726 93.262333,11.3655071 C93.8859779,11.0402159 94.3431685,11.720228 94.6512206,13.2800918 C94.6664858,13.3573889 94.6256907,13.4346345 94.5601023,13.4526247 C94.4945139,13.4706149 94.4289691,13.4225372 94.413704,13.3452402 Z" id="Shape" fill="#EF6949" fill-rule="nonzero"></path>
                        <path d="M93.0020778,13.1173359 C94.3160208,13.6024661 94.7001497,14.1612796 93.9757313,14.7054872 C93.8929577,14.7676695 93.7582887,14.7680176 93.6749396,14.7062648 C93.5915904,14.644512 93.5911238,14.5440428 93.6738973,14.4818605 C94.134147,14.1361054 93.9068913,13.805504 92.8133967,13.4017671 C92.708117,13.362896 92.6650086,13.2677126 92.7171114,13.1891691 C92.7692143,13.1106256 92.8967981,13.0784648 93.0020778,13.1173359 Z" id="Shape" fill="#EF6949" fill-rule="nonzero"></path>
                        <path d="M84.9119585,18.1595486 C84.603004,18.226662 83.863853,17.8076796 83.760824,17.3877799 C83.657795,16.9678802 85.2722606,16.2190575 85.3752896,16.6389573 C85.4783186,17.058857 85.220913,18.0924353 84.9119585,18.1595486 Z" id="Shape" fill="#EF6949" fill-rule="nonzero"></path>
                        <ellipse id="Shape" fill="#423565" fill-rule="nonzero" transform="translate(95.261329, 16.674350) scale(-1, 1) rotate(32.000000) translate(-95.261329, -16.674350) " cx="95.2613292" cy="16.6743504" rx="1" ry="1"></ellipse>
                        <path d="M85.4133988,5.08864855 C85.3867243,5.04971985 85.3965129,4.99643785 85.4352622,4.96963986 C85.4740116,4.94284187 85.5270481,4.95267575 85.5537226,4.99160444 C86.5003036,6.37304063 87.731453,7.28117927 89.2496101,7.71851871 C90.7728774,8.15733028 92.1902109,8.20342268 93.5029622,7.85778628 C93.5484683,7.8458049 93.5950264,7.87315283 93.6069526,7.91886958 C93.6188787,7.96458634 93.5916568,8.01135992 93.5461507,8.02334131 C92.2025297,8.37710544 90.7542466,8.33000654 89.2026532,7.883035 C87.6459495,7.43459133 86.3820517,6.5022964 85.4133988,5.08864855 Z" id="Shape" fill="#FFFFFF" fill-rule="nonzero"></path>
                        <path d="M96.8086427,1.34930428 C96.7738443,1.35996365 96.7405867,1.32141546 96.7343599,1.26320449 C96.7281331,1.20499352 96.7512951,1.14916308 96.7860936,1.13850371 C97.8568614,0.810509429 98.903417,1.48202228 99.8254391,2.57528977 C100.817672,3.75180771 100.014749,4.93576649 100.349541,5.8432115 C100.429151,6.05899314 100.540876,6.19087619 100.511269,6.16251489 C99.5921094,5.28203289 100.857556,4.05215778 99.7110345,2.65416712 C98.8348916,1.58585783 97.8380677,1.03397401 96.8086427,1.34930428 Z" id="Shape" fill="#FFFFFF" fill-rule="nonzero" transform="translate(98.624745, 3.610680) rotate(-23.000000) translate(-98.624745, -3.610680) "></path>
                        <path d="" id="Shape" fill-rule="nonzero"></path>
                        <polygon id="Shape" fill="url(#linearGradient-28)" points="0 72.6005415 116.850015 51.1969697 142.274057 85.7336352"></polygon>
                        <path d="M101.981339,54.8485077 C104.804485,52.546574 106.785448,50.4631457 107.924231,48.5982228 C108.485324,47.679352 109.388358,46.6523497 110.633334,45.517216 C108.878374,42.3501488 107.138791,38.9681222 105.414586,35.3711361 C102.828278,29.9756569 106.782974,26.888364 108.17367,28.5058914 C109.564366,30.1234188 118.783843,44.9086107 116.121814,47.9788625 C114.347128,50.0256971 110.016917,53.4604848 103.13118,58.2832255 C102.42561,59.5444392 102.204024,59.8109234 101.472643,60.2805704 C100.741262,60.7502174 99.6736561,60.9176512 98.4667088,60.884313 C97.6854854,61.3038859 95.7724282,61.0247011 95.0982876,60.884313 C94.8477805,60.8321454 90.5795016,61.128719 90.4577189,60.5587217 C90.2539029,59.6047722 90.0559431,57.8720148 91.7385161,56.5368351 C93.1088727,55.44941 96.6076995,54.7894717 96.6076995,54.3106978 C96.6076995,52.7930999 98.8552448,53.7426575 101.981339,54.8485077 Z" id="Shape" fill="url(#linearGradient-29)" fill-rule="nonzero"></path>
                        <path d="M113.082821,30.6287455 C113.404187,31.2167287 115.006617,31.8710476 114.958279,32.4510276 C114.636592,36.3107503 106.107526,40.5947407 105.452615,39.4468559 C104.212367,37.2730328 103.848587,32.9884056 102.621951,30.6399577 C99.6644181,24.9776292 105.734106,20.1153076 107.324415,21.8128346 C108.118233,22.6601714 110.631037,26.1428855 113.082821,30.6287455 Z" id="Shape" fill="url(#linearGradient-30)"></path>
                    </g>
                    <g id="分组-9" transform="translate(172.000000, 41.000000)" fill-rule="nonzero">
                        <circle id="Oval" fill="url(#linearGradient-31)" cx="10" cy="10" r="10"></circle>
                        <path d="M12.6801551,7.90038616 C12.931825,7.64871628 13.3398625,7.64871628 13.5915324,7.90038616 C13.8432023,8.15205604 13.8432023,8.56009353 13.5915324,8.81176341 L9.9460234,12.4572724 C9.69435353,12.7089423 9.28631603,12.7089423 9.03464616,12.4572724 L6.75620304,10.1788293 C6.50453316,9.9271594 6.50453316,9.51912191 6.75620304,9.26745203 C7.00787291,9.01578215 7.41591041,9.01578215 7.66758028,9.26745203 L9.49033478,11.0902065 L12.6801551,7.90038616 Z" id="Path" fill="#FFFFFF"></path>
                    </g>
                </g>
            </g>
        </g>
    </g>
</svg>