<?xml version="1.0" encoding="UTF-8"?>
<svg width="40px" height="40px" viewBox="0 0 40 40" version="1.1" xmlns="http://www.w3.org/2000/svg" xmlns:xlink="http://www.w3.org/1999/xlink">
    <title>返回按钮</title>
    <g id="B端工作台UI设计稿" stroke="none" stroke-width="1" fill="none" fill-rule="evenodd">
        <g id="02消息详情-公告详情" transform="translate(-80.000000, -64.000000)">
            <g id="返回按钮" transform="translate(80.000000, 64.000000)">
                <rect id="矩形" x="0" y="0" width="40" height="40"></rect>
                <g id="编组" transform="translate(5.767767, 6.560660)" fill="#1D1F2B">
                    <path d="M3.15596142,0.534641072 L14.8225245,12.2010779 L26.4904852,0.534641072 C27.1739027,-0.148776439 28.2819414,-0.148776439 28.9653589,0.534641072 C29.6487764,1.21805858 29.6487764,2.3260973 28.9653589,3.00951481 L17.2975245,14.6760779 L28.9653589,26.3440386 C29.6487764,27.0274561 29.6487764,28.1354948 28.9653589,28.8189123 C28.2819414,29.5023298 27.1739027,29.5023298 26.4904852,28.8189123 L14.8225245,17.1510779 L3.15596142,28.8189123 C2.4725439,29.5023298 1.36450519,29.5023298 0.681087681,28.8189123 C-0.00232982959,28.1354948 -0.00232982959,27.0274561 0.681087681,26.3440386 L12.3475245,14.6760779 L0.681087681,3.00951481 C-0.00232982959,2.3260973 -0.00232982959,1.21805858 0.681087681,0.534641072 C1.36450519,-0.148776439 2.4725439,-0.148776439 3.15596142,0.534641072 Z" id="形状结合"></path>
                </g>
            </g>
        </g>
    </g>
</svg>